<?xml version="1.0" encoding="UTF-8" standalone="no" ?>
<!DOCTYPE svg PUBLIC "-//W3C//DTD SVG 1.1//EN" "http://www.w3.org/Graphics/SVG/1.1/DTD/svg11.dtd">
<svg xmlns="http://www.w3.org/2000/svg" xmlns:xlink="http://www.w3.org/1999/xlink" version="1.1" width="1080" height="1080" viewBox="0 0 1080 1080" xml:space="preserve">
<desc>Created with Fabric.js 5.2.4</desc>
<defs>
</defs>
<rect x="0" y="0" width="100%" height="100%" fill="transparent"></rect>
<g transform="matrix(1 0 0 1 540 540)" id="2e65674b-f78b-4852-aaca-27284429abc0"  >
<rect style="stroke: none; stroke-width: 1; stroke-dasharray: none; stroke-linecap: butt; stroke-dashoffset: 0; stroke-linejoin: miter; stroke-miterlimit: 4; fill: rgb(255,255,255); fill-rule: nonzero; opacity: 1; visibility: hidden;" vector-effect="non-scaling-stroke"  x="-540" y="-540" rx="0" ry="0" width="1080" height="1080" />
</g>
<g transform="matrix(1 0 0 1 540 540)" id="2d857f65-3a30-47a2-aba1-0a90e1c73331"  >
</g>
<g transform="matrix(2.02 0 0 2.02 541.91 541.91)" id="3cd65acb-cff3-429f-835f-a2f8834b6607"  >
<path style="stroke: rgb(0,0,0); stroke-width: 0; stroke-dasharray: none; stroke-linecap: butt; stroke-dashoffset: 0; stroke-linejoin: miter; stroke-miterlimit: 4; fill: rgb(0,0,0); fill-opacity: 0.34; fill-rule: nonzero; opacity: 1;" vector-effect="non-scaling-stroke"  transform=" translate(-255.99, -256.04)" d="M 416 208 C 416 253.9 401.1 296.3 376 330.7 L 502.6 457.4 C 515.1 469.9 515.1 490.2 502.6 502.7 C 490.1 515.2 469.8 515.2 457.3 502.7 L 330.70000000000005 376 C 296.30000000000007 401.2 253.90000000000003 416 208.00000000000006 416 C 93.10000000000005 416 5.684341886080802e-14 322.9 5.684341886080802e-14 208 C 5.684341886080802e-14 93.10000000000002 93.10000000000005 0 208.00000000000006 0 C 322.9000000000001 0 416.00000000000006 93.1 416.00000000000006 208 z M 208 352 C 287.5290039756343 352 352 287.5290039756343 352 208 C 352 128.47099602436575 287.5290039756343 64 208 64 C 128.47099602436575 64 64 128.47099602436575 64 208 C 64 287.5290039756343 128.47099602436575 352 208 352 z" stroke-linecap="round" />
</g>
</svg>